<svg xmlns="http://www.w3.org/2000/svg" viewBox="0 0 160.39 9.21"><defs><style>.cls-1{fill-rule:evenodd;}</style></defs><title>creative digtal</title><g id="Слой_2" data-name="Слой 2"><g id="_1" data-name="1"><path class="cls-1" d="M4.34,6.24a5.15,5.15,0,0,1-.44.36,3.1,3.1,0,0,1-.44.27A1.94,1.94,0,0,1,3,7a2.79,2.79,0,0,1-.57.05A2.42,2.42,0,0,1,.65,6.37a1.79,1.79,0,0,1-.39-.57,2.92,2.92,0,0,1-.19-.66A5,5,0,0,1,0,4.39Q0,4,0,3.58t0-.89a5.12,5.12,0,0,1,.07-.74,2.44,2.44,0,0,1,.19-.62A1.87,1.87,0,0,1,.65.79,2.4,2.4,0,0,1,2.42.08,2.78,2.78,0,0,1,3,.13a2.19,2.19,0,0,1,.48.16A2.35,2.35,0,0,1,3.9.56l.44.36-.49.49A3.28,3.28,0,0,0,3.21.92,1.55,1.55,0,0,0,2.43.74a1.64,1.64,0,0,0-1.21.48,1.24,1.24,0,0,0-.27.41,2.47,2.47,0,0,0-.15.53,4.74,4.74,0,0,0-.06.65q0,.36,0,.77v.26q0,.47,0,.81a3.25,3.25,0,0,0,.08.57A1.7,1.7,0,0,0,1,5.63a1.37,1.37,0,0,0,.24.31,1.6,1.6,0,0,0,1.21.48,1.55,1.55,0,0,0,.78-.18,3.27,3.27,0,0,0,.64-.49l.49.49Zm6.33-3.07a1.41,1.41,0,0,0-.38-.28,1,1,0,0,0-.42-.07A1.1,1.1,0,0,0,9,3.17a1.32,1.32,0,0,0-.32.93V7H8V2.26h.69v.58a1.6,1.6,0,0,1,1.36-.64,1.66,1.66,0,0,1,.64.12.89.89,0,0,1,.23.12l.25.21-.51.52ZM17.26,4.3V4.08c0-.06,0-.11,0-.16a1,1,0,0,0,0-.12l0-.12A1.18,1.18,0,0,0,16,2.81a1.25,1.25,0,0,0-.68.19,1.14,1.14,0,0,0-.44.52,1,1,0,0,0-.06.15,1.13,1.13,0,0,0,0,.16c0,.06,0,.12,0,.2s0,.17,0,.27Zm-2.53.52c0,.22,0,.39,0,.51a1.31,1.31,0,0,0,.1.35,1.27,1.27,0,0,0,1.3.79,1.5,1.5,0,0,0,.32,0l.29-.08a1.58,1.58,0,0,0,.29-.15,2.41,2.41,0,0,0,.31-.28l.47.42a4.06,4.06,0,0,1-.43.36,2,2,0,0,1-.38.2,2.46,2.46,0,0,1-.92.16,1.93,1.93,0,0,1-1.56-.62A2.79,2.79,0,0,1,14,4.61a3.45,3.45,0,0,1,.14-1,2.24,2.24,0,0,1,.39-.76,1.65,1.65,0,0,1,.61-.48A2,2,0,0,1,16,2.21a2,2,0,0,1,.82.16,1.67,1.67,0,0,1,.61.46,2.11,2.11,0,0,1,.39.73,3.15,3.15,0,0,1,.14,1v.32Zm8.28,0q-1.06,0-1.06.84a.71.71,0,0,0,.27.62,1.58,1.58,0,0,0,.88.19,1.4,1.4,0,0,0,1-.27,1.14,1.14,0,0,0,.29-.88V4.83ZM24.34,7V6.57L24,6.81a1.13,1.13,0,0,1-.26.14,1.18,1.18,0,0,1-.36.1l-.48,0a1.93,1.93,0,0,1-1.26-.36,1.28,1.28,0,0,1-.43-1,1.24,1.24,0,0,1,.44-1,1.84,1.84,0,0,1,1.21-.36h1.44V3.85a1,1,0,0,0-.3-.8,1.48,1.48,0,0,0-1-.25,1.64,1.64,0,0,0-.73.14.79.79,0,0,0-.21.14,2.36,2.36,0,0,0-.22.26l-.47-.44a3.36,3.36,0,0,1,.3-.32,1.37,1.37,0,0,1,.3-.19,2.4,2.4,0,0,1,1.06-.19Q25,2.21,25,3.79V7Zm5.91,0a1.16,1.16,0,0,1-.88-.34A1.31,1.31,0,0,1,29,5.75V2.82h-.6V2.29H29V.8h.69V2.29h1v.53h-1v2.9q0,.7.65.7h.37V7Zm4.09,0V2.26H35V7ZM35.18.46A.47.47,0,0,1,35,.81a.47.47,0,0,1-.34.14.46.46,0,0,1-.33-.14.46.46,0,0,1-.14-.33.46.46,0,0,1,.14-.33A.46.46,0,0,1,34.7,0,.48.48,0,0,1,35,.14a.43.43,0,0,1,.15.33ZM40.6,7H40L38.24,2.26H39l1.3,3.82L41.6,2.26h.75L40.6,7ZM48.5,4.3V4.08c0-.06,0-.11,0-.16a1,1,0,0,0,0-.12l0-.12a1.18,1.18,0,0,0-1.18-.88,1.25,1.25,0,0,0-.68.19,1.14,1.14,0,0,0-.44.52,1,1,0,0,0-.06.15,1.13,1.13,0,0,0,0,.16c0,.06,0,.12,0,.2s0,.17,0,.27ZM46,4.83c0,.22,0,.39,0,.51a1.31,1.31,0,0,0,.1.35,1.27,1.27,0,0,0,1.3.79,1.5,1.5,0,0,0,.32,0L48,6.37a1.58,1.58,0,0,0,.29-.15,2.41,2.41,0,0,0,.31-.28l.47.42a4.05,4.05,0,0,1-.43.36,2,2,0,0,1-.38.2,2.46,2.46,0,0,1-.92.16,1.93,1.93,0,0,1-1.56-.62,2.79,2.79,0,0,1-.53-1.84,3.45,3.45,0,0,1,.14-1,2.24,2.24,0,0,1,.39-.76,1.65,1.65,0,0,1,.61-.48,2,2,0,0,1,.82-.16,2,2,0,0,1,.82.16,1.67,1.67,0,0,1,.61.46,2.11,2.11,0,0,1,.39.73,3.16,3.16,0,0,1,.14,1v.32Zm13.5-1.34-.31.22-.21.16L58.78,4l-.16.16a1.19,1.19,0,0,0-.25.41,1.43,1.43,0,0,0-.09.5,1.27,1.27,0,0,0,.41,1,1.53,1.53,0,0,0,1.07.37,2.17,2.17,0,0,0,.78-.14,1.87,1.87,0,0,0,.38-.18,4.37,4.37,0,0,0,.44-.34l-1.9-2.28ZM60,2.39A2,2,0,0,0,60.5,2a.74.74,0,0,0,.14-.45A.78.78,0,0,0,60.4.94a.78.78,0,0,0-.58-.24A.76.76,0,0,0,59,1.5a.9.9,0,0,0,.13.46,2.23,2.23,0,0,0,.17.28l.32.4L60,2.39ZM62.39,7l-.62-.75-.3.25-.27.18a2.94,2.94,0,0,1-1.47.38,2.66,2.66,0,0,1-.89-.14,2,2,0,0,1-.68-.4,1.77,1.77,0,0,1-.44-.63,2.07,2.07,0,0,1-.15-.81A1.83,1.83,0,0,1,58,3.94l.19-.22.22-.2.29-.22L59.05,3l-.19-.23-.13-.17-.11-.15-.1-.16a1.59,1.59,0,0,1-.22-.8,1.4,1.4,0,0,1,.12-.57,1.34,1.34,0,0,1,.32-.45,1.54,1.54,0,0,1,.48-.3,1.64,1.64,0,0,1,1.19,0,1.54,1.54,0,0,1,.48.3,1.35,1.35,0,0,1,.32.45,1.4,1.4,0,0,1,.12.57,1.14,1.14,0,0,1-.12.53,1.69,1.69,0,0,1-.3.42,2.84,2.84,0,0,1-.41.34L60,3.11l1.76,2.12a2.34,2.34,0,0,0,.16-.3l.1-.25.05-.2a1.85,1.85,0,0,0,0-.21c0-.08,0-.17,0-.27s0-.22,0-.35h.7q0,.25,0,.44t0,.34a2.63,2.63,0,0,1-.06.29q0,.14-.1.3l-.07.19-.08.16-.11.17-.15.21L63.31,7Zm9.42-.66a2.29,2.29,0,0,0,.78-.13,1.36,1.36,0,0,0,.57-.38,1.57,1.57,0,0,0,.34-.69A4.83,4.83,0,0,0,73.62,4V3.5q0-.5,0-.86a3.94,3.94,0,0,0-.07-.6,1.78,1.78,0,0,0-.14-.42,1.35,1.35,0,0,0-.22-.32,1.77,1.77,0,0,0-1.35-.5h-1.5V6.37ZM71.94.14a2.83,2.83,0,0,1,1,.16,2.06,2.06,0,0,1,.75.47,1.85,1.85,0,0,1,.34.47,2.68,2.68,0,0,1,.2.53,3.62,3.62,0,0,1,.1.57q0,.29,0,.58v.56q0,.37,0,.76a5.66,5.66,0,0,1-.06.77,3.35,3.35,0,0,1-.2.74,1.93,1.93,0,0,1-.41.63,2.06,2.06,0,0,1-.75.47,2.83,2.83,0,0,1-1,.16H69.58V.14ZM78.17,7V2.26h.69V7ZM79,.46a.47.47,0,0,1-.14.34.47.47,0,0,1-.34.14.46.46,0,0,1-.33-.14A.46.46,0,0,1,78,.47a.46.46,0,0,1,.14-.33A.46.46,0,0,1,78.52,0a.48.48,0,0,1,.34.14A.43.43,0,0,1,79,.46Zm6.65,4.15a2.56,2.56,0,0,0-.28-1.37,1,1,0,0,0-.92-.42,1,1,0,0,0-.91.42,2.51,2.51,0,0,0-.28,1.36A2.51,2.51,0,0,0,83.54,6a1.2,1.2,0,0,0,1.82,0,2.48,2.48,0,0,0,.28-1.35Zm.69,2.55A2.43,2.43,0,0,1,86.2,8a1.76,1.76,0,0,1-.4.64,1.8,1.8,0,0,1-.64.41,2.28,2.28,0,0,1-.84.15,2.32,2.32,0,0,1-.81-.13,2,2,0,0,1-.35-.18,4.28,4.28,0,0,1-.42-.32l.45-.45.32.26a1,1,0,0,0,.25.13,1.57,1.57,0,0,0,.55.09,1.25,1.25,0,0,0,1-.38,1.57,1.57,0,0,0,.34-1.08V6.39a2.68,2.68,0,0,1-.29.3,1.13,1.13,0,0,1-.27.16,1.63,1.63,0,0,1-.73.15A1.55,1.55,0,0,1,83,6.43a3.09,3.09,0,0,1-.43-1.82A3.06,3.06,0,0,1,83,2.79a1.56,1.56,0,0,1,1.34-.58,1.75,1.75,0,0,1,.77.15,1.74,1.74,0,0,1,.26.17,1.88,1.88,0,0,1,.28.3V2.26h.68v4.9ZM90.29,7V2.26H91V7ZM91.12.46A.47.47,0,0,1,91,.81a.47.47,0,0,1-.34.14A.46.46,0,0,1,90.3.81a.46.46,0,0,1-.14-.33A.46.46,0,0,1,90.3.14.46.46,0,0,1,90.63,0,.48.48,0,0,1,91,.14a.43.43,0,0,1,.15.33ZM96.27,7a1.16,1.16,0,0,1-.88-.34,1.31,1.31,0,0,1-.32-.93V2.82h-.6V2.29h.6V.8h.69V2.29h1v.53h-1v2.9q0,.7.65.7h.37V7Zm5.47-2.2q-1.06,0-1.06.84a.71.71,0,0,0,.27.62,1.58,1.58,0,0,0,.88.19,1.4,1.4,0,0,0,1-.27,1.14,1.14,0,0,0,.29-.88V4.83ZM103.07,7V6.57l-.29.25a1.13,1.13,0,0,1-.26.14,1.18,1.18,0,0,1-.36.1l-.48,0a1.93,1.93,0,0,1-1.26-.36,1.28,1.28,0,0,1-.43-1,1.24,1.24,0,0,1,.44-1,1.84,1.84,0,0,1,1.21-.36h1.44V3.85a1,1,0,0,0-.3-.8,1.48,1.48,0,0,0-1-.25,1.64,1.64,0,0,0-.74.14.79.79,0,0,0-.21.14,2.36,2.36,0,0,0-.22.26l-.47-.44a3.36,3.36,0,0,1,.3-.32,1.37,1.37,0,0,1,.3-.19,2.4,2.4,0,0,1,1.06-.19q1.92,0,1.92,1.59V7Zm4.59,0V.14h.69V7Zm14-5.83-1.3,3.64h2.57l-1.28-3.64Zm2,5.83-.55-1.56h-3L119.57,7h-.78L121.32.14h.62L124.46,7Zm6.8-2.41a2.56,2.56,0,0,0-.28-1.37,1,1,0,0,0-.92-.42,1,1,0,0,0-.91.42,2.51,2.51,0,0,0-.28,1.36A2.51,2.51,0,0,0,128.37,6a1.2,1.2,0,0,0,1.82,0,2.48,2.48,0,0,0,.28-1.35Zm.69,2.55A2.43,2.43,0,0,1,131,8a1.76,1.76,0,0,1-.4.64,1.8,1.8,0,0,1-.64.41,2.28,2.28,0,0,1-.84.15,2.32,2.32,0,0,1-.81-.13A2,2,0,0,1,128,8.9a4.28,4.28,0,0,1-.42-.32l.45-.45.32.26a1,1,0,0,0,.25.13,1.57,1.57,0,0,0,.55.09,1.25,1.25,0,0,0,1-.38,1.57,1.57,0,0,0,.34-1.08V6.39a2.68,2.68,0,0,1-.29.3,1.13,1.13,0,0,1-.27.16,1.63,1.63,0,0,1-.74.15,1.55,1.55,0,0,1-1.34-.59,3.09,3.09,0,0,1-.43-1.82,3.06,3.06,0,0,1,.43-1.82,1.56,1.56,0,0,1,1.34-.58,1.75,1.75,0,0,1,.77.15,1.74,1.74,0,0,1,.26.17,1.88,1.88,0,0,1,.28.3V2.26h.68v4.9Zm6.91-2.86V4.08c0-.06,0-.11,0-.16a1,1,0,0,0,0-.12l0-.12a1.18,1.18,0,0,0-1.18-.88,1.25,1.25,0,0,0-.68.19,1.14,1.14,0,0,0-.44.52,1,1,0,0,0-.06.15,1.13,1.13,0,0,0,0,.16c0,.06,0,.12,0,.2s0,.17,0,.27Zm-2.53.52c0,.22,0,.39,0,.51a1.31,1.31,0,0,0,.1.35,1.27,1.27,0,0,0,1.3.79,1.5,1.5,0,0,0,.32,0l.29-.08a1.58,1.58,0,0,0,.29-.15,2.41,2.41,0,0,0,.31-.28l.47.42a4,4,0,0,1-.43.36,2,2,0,0,1-.38.2,2.46,2.46,0,0,1-.92.16,1.93,1.93,0,0,1-1.56-.62,2.79,2.79,0,0,1-.53-1.84,3.45,3.45,0,0,1,.14-1,2.24,2.24,0,0,1,.39-.76,1.65,1.65,0,0,1,.61-.48,2,2,0,0,1,.82-.16,2,2,0,0,1,.82.16,1.67,1.67,0,0,1,.61.46,2.11,2.11,0,0,1,.39.73,3.16,3.16,0,0,1,.14,1v.32Zm10,2.2V4.09a1.32,1.32,0,0,0-.31-.94,1.13,1.13,0,0,0-.87-.33,1.15,1.15,0,0,0-.88.33,1.31,1.31,0,0,0-.31.94V7h-.69V2.26h.69v.52a2.38,2.38,0,0,1,.29-.27,1.64,1.64,0,0,1,.28-.16,1.91,1.91,0,0,1,.78-.15,1.65,1.65,0,0,1,1.24.47,1.78,1.78,0,0,1,.46,1.3V7Zm8-.65-.21.21-.18.15-.16.11-.18.09a2.08,2.08,0,0,1-.8.15,2,2,0,0,1-1.57-.65,2.64,2.64,0,0,1-.56-1.79,2.65,2.65,0,0,1,.56-1.79A2,2,0,0,1,152,2.21a2.07,2.07,0,0,1,.8.15,1.68,1.68,0,0,1,.34.2,4.45,4.45,0,0,1,.39.36l-.47.44a3,3,0,0,0-.3-.28,1.1,1.1,0,0,0-.25-.15,1.31,1.31,0,0,0-.53-.11q-1.43,0-1.43,1.82t1.42,1.82a1.3,1.3,0,0,0,.52-.1,1.18,1.18,0,0,0,.26-.16l.3-.29.47.45Zm4.72,1.8a1.34,1.34,0,0,1-.47.68,1.37,1.37,0,0,1-.8.21h-.3V8.44h.21l.29,0a.49.49,0,0,0,.2-.09.63.63,0,0,0,.15-.18,2.06,2.06,0,0,0,.14-.29l.34-.93-1.71-4.66H157l1.31,3.82,1.3-3.82h.75Z"/></g></g></svg>