<svg xmlns="http://www.w3.org/2000/svg" viewBox="0 0 83.05 47.19"><defs><style>.cls-1{fill-rule:evenodd;}</style></defs><title>Logo vertical</title><g id="Слой_2" data-name="Слой 2"><g id="_1" data-name="1"><path class="cls-1" d="M18.73,13H17v.24a6.08,6.08,0,0,1-2,4.85,8.3,8.3,0,0,1-5.61,1.76,9.53,9.53,0,0,1-2.67-.36A7.69,7.69,0,0,1,4.39,18.4a10,10,0,0,1-3.26-3.65A10.32,10.32,0,0,1,0,9.91,9.67,9.67,0,0,1,.8,6,10.33,10.33,0,0,1,3.16,2.67,9.54,9.54,0,0,1,6.1.68,8.39,8.39,0,0,1,9.43,0,8.31,8.31,0,0,1,12,.37a5.56,5.56,0,0,1,2,1.12L15.07.35h.86l.14,5.5H15a8.32,8.32,0,0,0-2.09-3.71A4.52,4.52,0,0,0,9.72.88a4.61,4.61,0,0,0-2.21.46A2.94,2.94,0,0,0,6.24,2.81a7.12,7.12,0,0,0-.46,2.14q-.12,1.39-.13,5.56,0,5.86.72,7.16A2.84,2.84,0,0,0,9.11,19a3.3,3.3,0,0,0,2.14-.61A2.14,2.14,0,0,0,12,16.6V13H9.51v-.91h9.22V13Zm8.53-3.08c0,2.44,0,4.12.12,5a6.46,6.46,0,0,0,.43,2,3,3,0,0,0,1.3,1.5,4.82,4.82,0,0,0,2.29.46,4.85,4.85,0,0,0,2.3-.46A3,3,0,0,0,35,17a7.14,7.14,0,0,0,.46-2.19c.08-1,.13-2.61.13-4.91S35.57,6,35.48,5A7.14,7.14,0,0,0,35,2.84a3,3,0,0,0-1.3-1.5,4.85,4.85,0,0,0-2.3-.46,4.82,4.82,0,0,0-2.29.46,3,3,0,0,0-1.3,1.5,6.46,6.46,0,0,0-.43,2q-.12,1.38-.12,5Zm-5.68,0a9.38,9.38,0,0,1,.74-3.67A10.67,10.67,0,0,1,24.49,3,10.49,10.49,0,0,1,27.7.74a9.71,9.71,0,0,1,7.45,0A10.49,10.49,0,0,1,38.36,3a10.53,10.53,0,0,1,2.18,3.23,9.24,9.24,0,0,1,.75,3.66,9.39,9.39,0,0,1-.75,3.72,10.34,10.34,0,0,1-2.18,3.23,9.85,9.85,0,0,1-3.19,2.25,9.38,9.38,0,0,1-3.76.74,9.27,9.27,0,0,1-3.73-.74,10.22,10.22,0,0,1-3.2-2.25,10.41,10.41,0,0,1-2.16-3.23,9.61,9.61,0,0,1-.74-3.71Zm23.2,9.49v-.94h2V1.26h-2V.38h9.48v.88H51.64V18.47h2.78a5.19,5.19,0,0,0,3.68-1.24,8.66,8.66,0,0,0,2.09-4.17h.91l-.21,6.35Zm18.46-.94h2.31V1.26H63.26V.38H73a13.8,13.8,0,0,1,3.57.4,8.18,8.18,0,0,1,2.72,1.3,8.53,8.53,0,0,1,2.75,3.33,10.22,10.22,0,0,1,1,4.47,10.16,10.16,0,0,1-1,4.51,8.81,8.81,0,0,1-2.81,3.37A8.27,8.27,0,0,1,76.49,19a14.33,14.33,0,0,1-3.59.4H63.26v-.94Zm7.11,0H72.8a8.43,8.43,0,0,0,2.39-.24,2.61,2.61,0,0,0,1.24-.86,4.79,4.79,0,0,0,.91-2.17A24.41,24.41,0,0,0,77.6,11V9.66a38.42,38.42,0,0,0-.18-4.5A6.42,6.42,0,0,0,76.82,3a3,3,0,0,0-1.34-1.35,6.73,6.73,0,0,0-2.68-.39H70.37V18.47ZM19.87,32.62l1.79-4.07H18.14l1.73,4.07ZM13.52,47.19,5.88,28.6H4.26v-.88h20v.88h-.84a1.08,1.08,0,0,0-.68.2,2,2,0,0,0-.49.75L20.37,33.7,23.53,41l3.83-10.56a5.17,5.17,0,0,0,.2-.65,2.26,2.26,0,0,0,.07-.51.67.67,0,0,0-.21-.56,1.25,1.25,0,0,0-.76-.17H25.49v-.88H31v.88h-.9a1.45,1.45,0,0,0-1,.37,4.39,4.39,0,0,0-.83,1.59l-6,16.63h-.79L18,39l-3.71,8.2Zm2.39-5.77,1.61-3.6-3.92-9.27h-3l5.29,12.88ZM33,46.75v-.94h2.34V28.6H33v-.88h9.6v.88H40.27V45.81h2.34v.94Zm12.51,0v-.94h2V28.6h-2v-.88H55v.88H52.37V45.81h2.78a5.19,5.19,0,0,0,3.68-1.24,8.66,8.66,0,0,0,2.09-4.17h.91l-.21,6.35Zm18.58,0v-.94h2V28.6h-2v-.88h9.48v.88H71V45.81h2.78a5.19,5.19,0,0,0,3.68-1.24A8.66,8.66,0,0,0,79.5,40.4h.91l-.21,6.35Z"/></g></g></svg>